FFmpeg version SVN-r25716, Copyright (c) 2000-2010 the FFmpeg developers  built on Nov 10 2010 12:23:18 with gcc 4.1.2 20080704 (Red Hat 4.1.2-48)  configuration: --enable-libmp3lame --enable-shared --disable-mmx --arch=x86_64  libavutil     50.33. 0 / 50.33. 0  libavcore      0.12. 1 /  0.12. 1  libavcodec    52.94. 4 / 52.94. 4  libavformat   52.84. 0 / 52.84. 0  libavdevice   52. 2. 2 / 52. 2. 2  libavfilter    1.59. 0 /  1.59. 0  libswscale     0.12. 0 /  0.12. 0Input #0, mov,mp4,m4a,3gp,3g2,mj2, from '/RAID10/data/converted_video_files/35187.mov':  Duration: 00:00:15.00, start: 0.000000, bitrate: 4975 kb/s    Stream #0.0(eng): Video: cinepak, pal8, 572x434, 4973 kb/s, 12 fps, 60 tbr, 60 tbn, 60 tbc[buffer @ 0xfbb9720] w:572 h:434 pixfmt:pal8[ffsink @ 0xfb98ab0] auto-inserting filter 'auto-inserted scaler 0' between the filter 'src' and the filter 'out'[scale @ 0xfb98dd0] w:572 h:434 fmt:pal8 -> w:572 h:434 fmt:yuv420p flags:0x4Output #0, flv, to '/RAID10/data/converted_video_files/35187.flv':  Metadata:    encoder         : Lavf52.84.0    Stream #0.0(eng): Video: flv, yuv420p, 572x434, q=2-31, 600 kb/s, 1k tbn, 24 tbcStream mapping:  Stream #0.0 -> #0.0Press [q] to stop encodingframe=   33 fps=  0 q=15.9 size=     316kB time=2.71 bitrate= 954.7kbits/s    frame=   67 fps= 64 q=13.4 size=     445kB time=5.54 bitrate= 657.4kbits/s    frame=  100 fps= 65 q=12.7 size=     588kB time=8.29 bitrate= 581.3kbits/s    frame=  134 fps= 65 q=11.8 size=     747kB time=11.12 bitrate= 549.9kbits/s    frame=  167 fps= 65 q=11.0 size=     904kB time=13.87 bitrate= 533.6kbits/s    frame=  180 fps= 65 q=10.7 Lsize=     970kB time=14.96 bitrate= 531.2kbits/s    video:967kB audio:0kB global headers:0kB muxing overhead 0.312084%